<?xml version="1.0" standalone="no"?>
<!DOCTYPE svg PUBLIC "-//W3C//DTD SVG 20010904//EN"
 "http://www.w3.org/TR/2001/REC-SVG-20010904/DTD/svg10.dtd">
<svg version="1.0" xmlns="http://www.w3.org/2000/svg"
 width="1600.000000pt" height="1600.000000pt" viewBox="0 0 1600.000000 1600.000000"
 preserveAspectRatio="xMidYMid meet">
<metadata>
Created by potrace 1.11, written by Peter Selinger 2001-2013
</metadata>
<g transform="translate(0.000000,1600.000000) scale(0.100000,-0.100000)"
fill="#000000" stroke="none">
<path d="M8525 15674 c-11 -2 -45 -9 -75 -15 -557 -107 -1212 -734 -1370
-1311 -31 -114 -31 -113 -35 -243 -6 -216 44 -350 189 -503 254 -268 411 -509
524 -804 l30 -77 -32 -34 c-59 -64 -221 -240 -236 -257 -8 -10 -55 -61 -105
-115 -49 -53 -101 -109 -114 -124 -13 -14 -63 -69 -111 -121 -48 -52 -98 -107
-111 -121 -13 -15 -64 -71 -114 -125 -49 -53 -99 -107 -110 -120 -46 -51 -176
-192 -206 -225 -58 -61 -206 -223 -226 -245 -24 -28 -181 -199 -213 -233 -14
-14 -70 -75 -125 -136 -55 -60 -104 -115 -110 -121 -5 -6 -46 -50 -90 -99 -44
-48 -94 -102 -110 -119 -17 -17 -77 -83 -135 -146 -125 -137 -178 -196 -205
-224 -11 -12 -63 -68 -115 -126 -52 -58 -120 -132 -151 -165 -30 -33 -80 -87
-110 -120 -30 -32 -63 -69 -74 -81 -11 -11 -42 -45 -69 -75 -28 -30 -75 -81
-105 -114 -31 -33 -96 -105 -146 -159 -49 -54 -101 -111 -115 -126 -14 -15
-61 -67 -105 -115 -44 -48 -114 -124 -155 -168 -83 -88 -101 -114 -120 -172
-12 -38 -321 -818 -340 -860 -5 -11 -149 -371 -320 -800 -171 -429 -315 -789
-320 -800 -5 -11 -64 -157 -131 -325 -67 -168 -134 -332 -150 -365 -39 -81
-47 -165 -24 -236 20 -61 64 -131 98 -153 12 -9 498 -491 1080 -1073 l1057
-1056 0 -419 0 -418 -32 -1 c-90 -4 -251 -16 -313 -24 -16 -2 -54 -7 -84 -10
-185 -18 -500 -75 -681 -121 -52 -14 -103 -27 -113 -29 -99 -22 -441 -140
-555 -191 -29 -13 -55 -24 -58 -24 -15 0 -311 -154 -409 -212 -91 -55 -229
-148 -279 -189 -6 -5 -37 -30 -70 -56 -103 -84 -222 -212 -252 -272 l-29 -56
0 -245 c0 -240 0 -246 25 -295 30 -62 91 -122 156 -155 l49 -25 2965 0 2965 0
50 25 c64 31 124 91 155 155 25 49 25 54 25 295 0 237 -1 247 -24 294 -23 49
-136 170 -220 236 -24 19 -48 40 -55 46 -6 6 -54 42 -106 80 -326 241 -760
447 -1207 573 -62 18 -121 34 -130 36 -10 1 -46 10 -79 19 -97 25 -380 79
-479 91 -27 4 -57 8 -65 10 -8 2 -46 7 -85 11 -38 3 -77 8 -85 9 -13 3 -55 6
-250 21 -19 1 -47 3 -62 3 l-28 1 0 400 0 400 903 601 c496 331 916 617 933
635 49 53 76 120 80 195 6 138 -30 197 -216 353 -80 66 -147 123 -150 126 -3
3 -30 25 -60 50 -30 25 -64 52 -75 62 -11 9 -78 65 -150 124 -71 59 -132 110
-135 113 -3 4 -43 38 -90 76 -108 87 -253 208 -260 215 -5 5 -403 337 -444
370 -10 8 -23 20 -30 25 -19 17 -201 169 -204 171 -1 0 53 90 120 198 68 108
171 274 230 369 59 94 112 177 118 184 5 7 10 14 10 17 0 3 31 54 69 113 74
116 871 1389 908 1451 13 20 27 53 33 72 11 38 15 2655 4 2709 -7 33 1 46 89
141 48 52 198 215 257 280 14 15 64 70 111 121 48 52 98 107 113 123 22 25 26
26 27 10 0 -10 2 -32 4 -49 5 -56 17 -180 20 -217 4 -47 15 -211 20 -310 11
-207 24 -386 40 -538 13 -121 18 -156 42 -295 76 -446 231 -800 480 -1095 207
-246 454 -390 763 -445 186 -33 467 -25 705 20 406 77 918 302 1363 597 40 26
75 48 78 48 2 0 10 5 17 10 7 6 32 25 57 43 333 244 475 364 750 632 276 269
469 493 727 845 18 25 37 50 43 57 5 7 10 14 10 17 0 5 98 156 117 181 4 6 16
24 25 40 9 17 43 77 76 135 99 175 132 241 232 465 100 223 192 553 226 810
10 80 12 345 3 415 -14 101 -18 127 -29 172 -6 24 -13 53 -16 66 -19 90 -120
300 -178 373 -12 14 -32 41 -46 60 -85 117 -319 295 -570 432 -228 124 -600
238 -885 271 -229 27 -349 34 -655 41 -466 9 -789 25 -850 40 -3 1 -32 5 -65
10 -33 5 -62 9 -65 10 -3 1 -25 5 -50 9 -127 23 -347 93 -480 154 -96 45 -318
177 -375 224 -5 5 -36 29 -68 53 -68 51 -191 162 -292 263 -141 140 -264 193
-460 198 -66 2 -129 1 -140 -2z m185 -687 c333 -321 657 -532 1045 -682 161
-62 383 -125 530 -150 17 -3 53 -10 80 -15 44 -8 132 -19 270 -35 100 -11 352
-24 498 -25 59 -1 107 -3 107 -5 0 -2 -46 -27 -102 -56 -56 -28 -114 -59 -129
-68 -15 -9 -70 -41 -121 -71 -90 -52 -328 -207 -338 -220 -3 -3 -21 -15 -42
-27 -20 -12 -69 -48 -110 -81 -40 -32 -116 -93 -168 -134 -272 -216 -589 -525
-820 -798 -31 -36 -63 -74 -72 -85 -67 -78 -265 -343 -340 -455 -126 -188
-200 -311 -290 -485 l-78 -150 -1 50 c-1 28 -3 59 -4 70 -1 11 -6 67 -9 125
-4 58 -9 125 -11 150 -4 51 -34 311 -40 350 -10 60 -45 257 -50 280 -3 14 -7
34 -9 45 -13 61 -28 126 -42 175 -27 92 -85 273 -99 305 -7 17 -32 77 -55 134
-84 201 -222 439 -363 626 -54 71 -134 164 -235 275 -18 19 -32 45 -32 58 0
83 84 269 184 409 37 51 108 134 159 185 160 162 330 277 495 333 106 37 128
34 192 -28z m3990 -1251 c107 -29 186 -72 254 -139 114 -114 159 -244 160
-462 0 -71 -2 -159 -6 -195 -15 -143 -104 -455 -172 -605 -8 -16 -33 -73 -56
-125 -24 -52 -52 -108 -64 -125 -11 -16 -20 -31 -18 -33 7 -7 -145 -264 -241
-406 -453 -675 -1121 -1299 -1792 -1674 -319 -178 -673 -313 -911 -347 -21 -3
-46 -8 -54 -11 -8 -4 -78 -7 -156 -9 -206 -5 -330 22 -444 96 -94 61 -141 119
-187 232 -38 94 -51 187 -48 342 2 77 5 149 8 160 2 11 8 40 12 65 19 124 81
333 141 477 54 132 185 391 251 496 22 34 43 49 43 28 0 -12 183 -133 258
-170 159 -80 341 -122 538 -126 207 -5 369 28 554 112 54 24 181 97 210 120
273 214 420 430 501 738 27 104 31 140 34 271 6 299 -68 541 -238 781 -47 66
-62 94 -54 101 51 40 389 213 523 267 127 52 331 115 422 131 12 2 34 6 50 9
15 3 50 8 77 11 28 3 51 7 53 9 12 11 296 -4 352 -19z m-1912 -929 c18 -31 45
-88 60 -129 23 -64 26 -88 26 -198 0 -125 -10 -172 -55 -275 -38 -86 -170
-237 -233 -266 -12 -6 -37 -19 -56 -29 -79 -43 -171 -64 -275 -64 -120 -1
-168 7 -253 41 -70 28 -137 71 -198 127 l-38 35 20 23 c12 13 30 34 42 48 222
273 495 547 752 755 l94 77 41 -45 c22 -25 55 -70 73 -100z m-4071 -3844 c-2
-2 -342 -2 -755 -1 l-750 3 56 61 c32 34 93 101 137 149 44 49 91 100 105 115
14 15 63 69 110 120 47 51 94 102 105 114 17 18 106 115 276 301 73 80 208
228 283 309 15 17 44 49 65 71 45 50 251 273 311 338 25 27 47 54 50 60 3 7 6
-359 8 -812 1 -453 1 -826 -1 -828z m-278 -680 c-13 -21 -75 -121 -139 -223
-64 -102 -163 -260 -221 -352 -57 -92 -138 -222 -179 -288 -41 -66 -119 -191
-173 -277 -54 -87 -187 -300 -295 -473 l-198 -315 -114 -33 c-63 -18 -122 -35
-130 -37 -8 -2 -40 -11 -70 -20 -30 -9 -64 -18 -74 -20 -11 -3 -40 -11 -66
-20 -26 -9 -55 -17 -66 -20 -10 -2 -91 -25 -179 -50 -88 -26 -198 -57 -245
-70 -47 -13 -188 -53 -314 -89 -126 -37 -230 -65 -231 -64 -2 2 83 218 152
388 3 8 19 49 35 90 16 41 36 89 43 105 7 17 97 242 199 500 103 259 191 479
196 490 5 11 77 191 161 400 83 209 155 388 161 398 8 16 61 17 889 17 l881 0
-23 -37z m-824 -2764 c132 -110 249 -208 260 -217 11 -10 58 -49 105 -87 47
-38 87 -72 90 -75 3 -3 57 -48 120 -100 63 -52 117 -97 120 -100 3 -3 46 -39
95 -80 50 -41 99 -82 110 -92 11 -9 83 -69 160 -133 77 -64 141 -120 142 -124
2 -3 -298 -207 -666 -452 l-670 -446 -828 828 c-455 455 -829 831 -830 836 -2
7 320 104 577 174 36 10 207 59 380 109 173 50 324 93 335 95 11 3 63 18 115
34 52 16 106 29 120 30 18 0 88 -52 265 -200z m225 -3933 c36 -3 88 -7 115
-10 28 -3 79 -8 115 -11 36 -3 74 -7 85 -9 11 -2 43 -7 70 -10 28 -4 61 -8 75
-11 14 -3 41 -7 60 -10 74 -12 99 -17 210 -41 475 -102 990 -315 1168 -484
l42 -40 -2357 0 -2358 0 25 21 c250 200 765 415 1214 505 176 35 396 70 501
79 33 3 74 7 90 10 17 2 85 7 150 11 66 3 121 7 123 8 4 5 603 -3 672 -8z"/>
</g>
</svg>
